<svg width="135" height="23" viewBox="0 0 135 23" fill="none" xmlns="http://www.w3.org/2000/svg">
<path d="M24.6872 7.98528L17.0393 6.95067L13.6205 0.499089C13.5271 0.322449 13.3735 0.179455 13.1837 0.0925363C12.7078 -0.126161 12.1294 0.0560867 11.8915 0.499089L8.47263 6.95067L0.82469 7.98528C0.613837 8.01331 0.421057 8.10584 0.27346 8.24603C0.0950227 8.41674 -0.00330409 8.64642 8.47808e-05 8.88458C0.00347366 9.12274 0.108301 9.3499 0.291533 9.51616L5.82492 14.5378L4.51763 21.6286C4.48698 21.7936 4.50659 21.9632 4.57424 22.1183C4.64189 22.2734 4.75488 22.4078 4.90039 22.5062C5.0459 22.6045 5.21811 22.663 5.39749 22.6749C5.57688 22.6868 5.75625 22.6517 5.91529 22.5735L12.756 19.2258L19.5966 22.5735C19.7834 22.6661 20.0003 22.6969 20.2081 22.6632C20.7322 22.5791 21.0847 22.1165 20.9943 21.6286L19.687 14.5378L25.2204 9.51616C25.371 9.37877 25.4704 9.19933 25.5005 9.00306C25.5819 8.51239 25.2144 8.05818 24.6872 7.98528V7.98528Z" fill="#FFE91F"/>
<path d="M51.6164 7.98528L43.9685 6.95067L40.5497 0.499089C40.4563 0.322449 40.3027 0.179455 40.1129 0.0925363C39.637 -0.126161 39.0586 0.0560867 38.8207 0.499089L35.4018 6.95067L27.7539 7.98528C27.543 8.01331 27.3503 8.10584 27.2027 8.24603C27.0242 8.41674 26.9259 8.64642 26.9293 8.88458C26.9327 9.12274 27.0375 9.3499 27.2207 9.51616L32.7541 14.5378L31.4468 21.6286C31.4162 21.7936 31.4358 21.9632 31.5034 22.1183C31.5711 22.2734 31.6841 22.4078 31.8296 22.5062C31.9751 22.6045 32.1473 22.663 32.3267 22.6749C32.5061 22.6868 32.6855 22.6517 32.8445 22.5735L39.6852 19.2258L46.5258 22.5735C46.7126 22.6661 46.9295 22.6969 47.1373 22.6632C47.6614 22.5791 48.0139 22.1165 47.9235 21.6286L46.6162 14.5378L52.1496 9.51616C52.3002 9.37877 52.3996 9.19933 52.4297 9.00306C52.5111 8.51239 52.1436 8.05818 51.6164 7.98528V7.98528Z" fill="#FFE91F"/>
<path d="M78.5914 7.98528L71.3683 6.95067L68.1394 0.499089C68.0512 0.322449 67.9061 0.179455 67.7269 0.0925363C67.2774 -0.126161 66.7312 0.0560867 66.5065 0.499089L63.2776 6.95067L56.0545 7.98528C55.8554 8.01331 55.6733 8.10584 55.5339 8.24603C55.3654 8.41674 55.2725 8.64642 55.2757 8.88458C55.2789 9.12274 55.3779 9.3499 55.551 9.51616L60.7769 14.5378L59.5423 21.6286C59.5133 21.7936 59.5319 21.9632 59.5957 22.1183C59.6596 22.2734 59.7664 22.4078 59.9038 22.5062C60.0412 22.6045 60.2038 22.663 60.3733 22.6749C60.5427 22.6868 60.7121 22.6517 60.8623 22.5735L67.3229 19.2258L73.7836 22.5735C73.96 22.6661 74.1648 22.6969 74.3611 22.6632C74.8561 22.5791 75.1889 22.1165 75.1036 21.6286L73.8689 14.5378L79.0949 9.51616C79.2371 9.37877 79.331 9.19933 79.3595 9.00306C79.4363 8.51239 79.0892 8.05818 78.5914 7.98528V7.98528Z" fill="#FFE91F"/>
<path d="M106.892 7.98528L99.2441 6.95067L95.8253 0.499089C95.7319 0.322449 95.5783 0.179455 95.3885 0.0925363C94.9126 -0.126161 94.3343 0.0560867 94.0963 0.499089L90.6775 6.95067L83.0295 7.98528C82.8187 8.01331 82.6259 8.10584 82.4783 8.24603C82.2999 8.41674 82.2015 8.64642 82.2049 8.88458C82.2083 9.12274 82.3131 9.3499 82.4964 9.51616L88.0298 14.5378L86.7225 21.6286C86.6918 21.7936 86.7114 21.9632 86.7791 22.1183C86.8467 22.2734 86.9597 22.4078 87.1052 22.5062C87.2507 22.6045 87.4229 22.663 87.6023 22.6749C87.7817 22.6868 87.9611 22.6517 88.1201 22.5735L94.9608 19.2258L101.801 22.5735C101.988 22.6661 102.205 22.6969 102.413 22.6632C102.937 22.5791 103.29 22.1165 103.199 21.6286L101.892 14.5378L107.425 9.51616C107.576 9.37877 107.675 9.19933 107.705 9.00306C107.787 8.51239 107.419 8.05818 106.892 7.98528V7.98528Z" fill="#FFE91F"/>
<path d="M133.821 7.98528L126.173 6.95067L122.754 0.499089C122.661 0.322449 122.507 0.179455 122.317 0.0925363C121.842 -0.126161 121.263 0.0560867 121.025 0.499089L117.606 6.95067L109.958 7.98528C109.748 8.01331 109.555 8.10584 109.407 8.24603C109.229 8.41674 109.13 8.64642 109.134 8.88458C109.137 9.12274 109.242 9.3499 109.425 9.51616L114.959 14.5378L113.651 21.6286C113.621 21.7936 113.64 21.9632 113.708 22.1183C113.776 22.2734 113.889 22.4078 114.034 22.5062C114.18 22.6045 114.352 22.663 114.531 22.6749C114.711 22.6868 114.89 22.6517 115.049 22.5735L121.89 19.2258L128.73 22.5735C128.917 22.6661 129.134 22.6969 129.342 22.6632C129.866 22.5791 130.218 22.1165 130.128 21.6286L128.821 14.5378L134.354 9.51616C134.505 9.37877 134.604 9.19933 134.634 9.00306C134.716 8.51239 134.348 8.05818 133.821 7.98528V7.98528Z" fill="#FCFCFC"/>
</svg>
