<svg width="27" height="24" viewBox="0 0 27 24" fill="none" xmlns="http://www.w3.org/2000/svg">
<path d="M25.552 17.0375H7.89362L8.78024 15.2316L23.5118 15.2049C24.01 15.2049 24.437 14.8491 24.526 14.3569L26.5661 2.93749C26.6195 2.638 26.5394 2.32961 26.3437 2.09535C26.247 1.98006 26.1263 1.88719 25.9901 1.82319C25.8539 1.75918 25.7054 1.72557 25.5549 1.72469L6.81425 1.66242L6.65413 0.909232C6.55331 0.428854 6.12037 0.078949 5.62813 0.078949H1.04675C0.769134 0.078949 0.50289 0.189231 0.306586 0.385535C0.110282 0.581838 0 0.848083 0 1.1257C0 1.40331 0.110282 1.66956 0.306586 1.86586C0.50289 2.06217 0.769134 2.17245 1.04675 2.17245H4.78006L5.47987 5.49951L7.20271 13.8409L4.98466 17.4615C4.86948 17.617 4.8001 17.8016 4.78438 17.9944C4.76866 18.1873 4.80722 18.3807 4.8957 18.5527C5.07362 18.9056 5.43242 19.128 5.82977 19.128H7.69198C7.29498 19.6553 7.08055 20.2976 7.08113 20.9576C7.08113 22.636 8.44516 24 10.1235 24C11.8019 24 13.1659 22.636 13.1659 20.9576C13.1659 20.2963 12.9465 19.6529 12.5551 19.128H17.3322C16.9352 19.6553 16.7207 20.2976 16.7213 20.9576C16.7213 22.636 18.0853 24 19.7637 24C21.4421 24 22.8061 22.636 22.8061 20.9576C22.8061 20.2963 22.5867 19.6529 22.1952 19.128H25.5549C26.1302 19.128 26.6017 18.6595 26.6017 18.0813C26.6 17.8039 26.4886 17.5386 26.292 17.343C26.0953 17.1475 25.8293 17.0376 25.552 17.0375ZM7.25015 3.72626L24.3243 3.7826L22.6519 13.147L9.23986 13.1707L7.25015 3.72626ZM10.1235 21.8946C9.60756 21.8946 9.18649 21.4736 9.18649 20.9576C9.18649 20.4416 9.60756 20.0206 10.1235 20.0206C10.6395 20.0206 11.0606 20.4416 11.0606 20.9576C11.0606 21.2061 10.9618 21.4445 10.7861 21.6202C10.6104 21.7959 10.372 21.8946 10.1235 21.8946ZM19.7637 21.8946C19.2477 21.8946 18.8267 21.4736 18.8267 20.9576C18.8267 20.4416 19.2477 20.0206 19.7637 20.0206C20.2797 20.0206 20.7007 20.4416 20.7007 20.9576C20.7007 21.2061 20.602 21.4445 20.4263 21.6202C20.2506 21.7959 20.0122 21.8946 19.7637 21.8946Z" fill="#FCFCFC"/>
</svg>
