<svg width="52" height="24" viewBox="0 0 52 24" fill="none" xmlns="http://www.w3.org/2000/svg">
<path d="M17.4182 9.63406L12.0222 8.90408L9.60999 4.35214C9.54411 4.22751 9.43572 4.12662 9.30183 4.06529C8.96604 3.91099 8.55799 4.03957 8.39009 4.35214L5.97791 8.90408L0.581865 9.63406C0.433096 9.65384 0.297079 9.71912 0.192941 9.81803C0.0670438 9.93848 -0.00233122 10.1005 5.98176e-05 10.2686C0.00245086 10.4366 0.0764123 10.5969 0.205692 10.7142L4.10981 14.2572L3.18744 19.2602C3.16581 19.3766 3.17965 19.4963 3.22738 19.6057C3.27511 19.7151 3.35483 19.8099 3.4575 19.8793C3.56016 19.9488 3.68166 19.99 3.80823 19.9984C3.9348 20.0068 4.06136 19.982 4.17356 19.9269L9.00004 17.5648L13.8265 19.9269C13.9583 19.9922 14.1113 20.0139 14.258 19.9902C14.6277 19.9308 14.8764 19.6044 14.8126 19.2602L13.8903 14.2572L17.7944 10.7142C17.9007 10.6172 17.9708 10.4906 17.992 10.3522C18.0494 10.006 17.7901 9.68549 17.4182 9.63406Z" fill="#FFE91F"/>
<path d="M27.52 19.2C26.5333 19.2 25.5667 19.06 24.62 18.78C23.6867 18.4867 22.9 18.0867 22.26 17.58L23.36 15.56C23.8667 15.9733 24.48 16.3067 25.2 16.56C25.9333 16.8133 26.6933 16.94 27.48 16.94C28.4 16.94 29.12 16.7467 29.64 16.36C30.1733 15.9733 30.44 15.4533 30.44 14.8C30.44 14.36 30.3267 13.9733 30.1 13.64C29.8867 13.3067 29.5 13.0533 28.94 12.88C28.3933 12.7067 27.64 12.62 26.68 12.62H23.3L24.02 5H32.24V7.18H24.98L26.34 5.94L25.8 11.64L24.44 10.42H27.26C28.6467 10.42 29.76 10.6067 30.6 10.98C31.4533 11.34 32.0733 11.8467 32.46 12.5C32.86 13.14 33.06 13.8733 33.06 14.7C33.06 15.5133 32.86 16.26 32.46 16.94C32.06 17.62 31.4467 18.1667 30.62 18.58C29.8067 18.9933 28.7733 19.2 27.52 19.2ZM34.6597 22.02L35.8197 17.6L36.1597 19.08C35.693 19.08 35.2997 18.94 34.9797 18.66C34.673 18.3667 34.5197 17.9733 34.5197 17.48C34.5197 16.9733 34.673 16.5733 34.9797 16.28C35.2997 15.9733 35.6864 15.82 36.1397 15.82C36.6064 15.82 36.993 15.9733 37.2997 16.28C37.6064 16.5867 37.7597 16.9867 37.7597 17.48C37.7597 17.6133 37.7464 17.76 37.7197 17.92C37.693 18.0667 37.6464 18.24 37.5797 18.44C37.5264 18.64 37.433 18.8933 37.2997 19.2L36.2797 22.02H34.6597ZM45.0481 19.2C43.9415 19.2 42.9415 18.92 42.0481 18.36C41.1681 17.8 40.4748 16.9867 39.9681 15.92C39.4615 14.84 39.2081 13.5333 39.2081 12C39.2081 10.4667 39.4615 9.16667 39.9681 8.1C40.4748 7.02 41.1681 6.2 42.0481 5.64C42.9415 5.08 43.9415 4.8 45.0481 4.8C46.1681 4.8 47.1681 5.08 48.0481 5.64C48.9281 6.2 49.6215 7.02 50.1281 8.1C50.6481 9.16667 50.9081 10.4667 50.9081 12C50.9081 13.5333 50.6481 14.84 50.1281 15.92C49.6215 16.9867 48.9281 17.8 48.0481 18.36C47.1681 18.92 46.1681 19.2 45.0481 19.2ZM45.0481 16.94C45.7015 16.94 46.2681 16.7667 46.7481 16.42C47.2281 16.06 47.6015 15.5133 47.8681 14.78C48.1481 14.0467 48.2881 13.12 48.2881 12C48.2881 10.8667 48.1481 9.94 47.8681 9.22C47.6015 8.48667 47.2281 7.94667 46.7481 7.6C46.2681 7.24 45.7015 7.06 45.0481 7.06C44.4215 7.06 43.8615 7.24 43.3681 7.6C42.8881 7.94667 42.5081 8.48667 42.2281 9.22C41.9615 9.94 41.8281 10.8667 41.8281 12C41.8281 13.12 41.9615 14.0467 42.2281 14.78C42.5081 15.5133 42.8881 16.06 43.3681 16.42C43.8615 16.7667 44.4215 16.94 45.0481 16.94Z" fill="#121212"/>
</svg>
