<svg width="127" height="20" viewBox="0 0 127 20" fill="none" xmlns="http://www.w3.org/2000/svg">
<path d="M17.4182 7.63406L12.0222 6.90408L9.60999 2.35214C9.54411 2.22751 9.43572 2.12662 9.30183 2.06529C8.96604 1.91099 8.55799 2.03957 8.39009 2.35214L5.97791 6.90408L0.581865 7.63406C0.433096 7.65384 0.297079 7.71912 0.192941 7.81803C0.0670438 7.93848 -0.00233122 8.10053 5.98176e-05 8.26856C0.00245086 8.4366 0.0764123 8.59688 0.205692 8.71418L4.10981 12.2572L3.18744 17.2602C3.16581 17.3766 3.17965 17.4963 3.22738 17.6057C3.27511 17.7151 3.35483 17.8099 3.4575 17.8793C3.56016 17.9488 3.68166 17.99 3.80823 17.9984C3.9348 18.0068 4.06136 17.982 4.17356 17.9269L9.00004 15.5648L13.8265 17.9269C13.9583 17.9922 14.1113 18.0139 14.258 17.9902C14.6277 17.9308 14.8764 17.6044 14.8126 17.2602L13.8903 12.2572L17.7944 8.71418C17.9007 8.61724 17.9708 8.49064 17.992 8.35216C18.0494 8.00597 17.7901 7.68549 17.4182 7.63406Z" fill="#FFE91F"/>
<path d="M36.4182 7.63406L31.0222 6.90408L28.61 2.35214C28.5441 2.22751 28.4357 2.12662 28.3018 2.06529C27.966 1.91099 27.558 2.03957 27.3901 2.35214L24.9779 6.90408L19.5819 7.63406C19.4331 7.65384 19.2971 7.71912 19.1929 7.81803C19.067 7.93848 18.9977 8.10053 19.0001 8.26856C19.0025 8.4366 19.0764 8.59688 19.2057 8.71418L23.1098 12.2572L22.1874 17.2602C22.1658 17.3766 22.1796 17.4963 22.2274 17.6057C22.2751 17.7151 22.3548 17.8099 22.4575 17.8793C22.5602 17.9488 22.6817 17.99 22.8082 17.9984C22.9348 18.0068 23.0614 17.982 23.1736 17.9269L28 15.5648L32.8265 17.9269C32.9583 17.9922 33.1113 18.0139 33.258 17.9902C33.6277 17.9308 33.8764 17.6044 33.8126 17.2602L32.8903 12.2572L36.7944 8.71418C36.9007 8.61724 36.9708 8.49064 36.992 8.35216C37.0494 8.00597 36.7901 7.68549 36.4182 7.63406Z" fill="#FFE91F"/>
<path d="M55.4505 7.63406L50.3543 6.90408L48.0761 2.35214C48.0139 2.22751 47.9115 2.12662 47.7851 2.06529C47.4679 1.91099 47.0825 2.03957 46.924 2.35214L44.6458 6.90408L39.5495 7.63406C39.409 7.65384 39.2806 7.71912 39.1822 7.81803C39.0633 7.93848 38.9978 8.10053 39.0001 8.26856C39.0023 8.4366 39.0722 8.59688 39.1943 8.71418L42.8815 12.2572L42.0104 17.2602C41.9899 17.3766 42.003 17.4963 42.0481 17.6057C42.0932 17.7151 42.1684 17.8099 42.2654 17.8793C42.3624 17.9488 42.4771 17.99 42.5967 17.9984C42.7162 18.0068 42.8357 17.982 42.9417 17.9269L47.5 15.5648L52.0584 17.9269C52.1828 17.9922 52.3273 18.0139 52.4658 17.9902C52.8151 17.9308 53.0499 17.6044 52.9897 17.2602L52.1186 12.2572L55.8058 8.71418C55.9062 8.61724 55.9724 8.49064 55.9925 8.35216C56.0467 8.00597 55.8018 7.68549 55.4505 7.63406Z" fill="#FFE91F"/>
<path d="M75.4182 7.63406L70.0222 6.90408L67.61 2.35214C67.5441 2.22751 67.4357 2.12662 67.3018 2.06529C66.966 1.91099 66.558 2.03957 66.3901 2.35214L63.9779 6.90408L58.5819 7.63406C58.4331 7.65384 58.2971 7.71912 58.1929 7.81803C58.067 7.93848 57.9977 8.10053 58.0001 8.26856C58.0025 8.4366 58.0764 8.59688 58.2057 8.71418L62.1098 12.2572L61.1874 17.2602C61.1658 17.3766 61.1796 17.4963 61.2274 17.6057C61.2751 17.7151 61.3548 17.8099 61.4575 17.8793C61.5602 17.9488 61.6817 17.99 61.8082 17.9984C61.9348 18.0068 62.0614 17.982 62.1736 17.9269L67 15.5648L71.8265 17.9269C71.9583 17.9922 72.1113 18.0139 72.258 17.9902C72.6277 17.9308 72.8764 17.6044 72.8126 17.2602L71.8903 12.2572L75.7944 8.71418C75.9007 8.61724 75.9708 8.49064 75.992 8.35216C76.0494 8.00597 75.7901 7.68549 75.4182 7.63406Z" fill="#FFE91F"/>
<path d="M94.4182 7.63406L89.0222 6.90408L86.61 2.35214C86.5441 2.22751 86.4357 2.12662 86.3018 2.06529C85.966 1.91099 85.558 2.03957 85.3901 2.35214L82.9779 6.90408L77.5819 7.63406C77.4331 7.65384 77.2971 7.71912 77.1929 7.81803C77.067 7.93848 76.9977 8.10053 77.0001 8.26856C77.0025 8.4366 77.0764 8.59688 77.2057 8.71418L81.1098 12.2572L80.1874 17.2602C80.1658 17.3766 80.1796 17.4963 80.2274 17.6057C80.2751 17.7151 80.3548 17.8099 80.4575 17.8793C80.5602 17.9488 80.6817 17.99 80.8082 17.9984C80.9348 18.0068 81.0614 17.982 81.1736 17.9269L86 15.5648L90.8265 17.9269C90.9583 17.9922 91.1113 18.0139 91.258 17.9902C91.6277 17.9308 91.8764 17.6044 91.8126 17.2602L90.8903 12.2572L94.7944 8.71418C94.9007 8.61724 94.9708 8.49064 94.992 8.35216C95.0494 8.00597 94.7901 7.68549 94.4182 7.63406Z" fill="#EBEBEB"/>
<path d="M101.544 13.456V12.016L107.064 4.8H109.288L103.848 12.016L102.808 11.696H111.688V13.456H101.544ZM107.688 16V13.456L107.752 11.696V9.44H109.704V16H107.688ZM112.956 18.416L113.884 14.88L114.156 16.064C113.783 16.064 113.468 15.952 113.212 15.728C112.967 15.4933 112.844 15.1787 112.844 14.784C112.844 14.3787 112.967 14.0587 113.212 13.824C113.468 13.5787 113.777 13.456 114.14 13.456C114.513 13.456 114.823 13.5787 115.068 13.824C115.313 14.0693 115.436 14.3893 115.436 14.784C115.436 14.8907 115.425 15.008 115.404 15.136C115.383 15.2533 115.345 15.392 115.292 15.552C115.249 15.712 115.175 15.9147 115.068 16.16L114.252 18.416H112.956ZM121.267 16.16C120.381 16.16 119.581 15.936 118.867 15.488C118.163 15.04 117.608 14.3893 117.203 13.536C116.797 12.672 116.595 11.6267 116.595 10.4C116.595 9.17333 116.797 8.13333 117.203 7.28C117.608 6.416 118.163 5.76 118.867 5.312C119.581 4.864 120.381 4.64 121.267 4.64C122.163 4.64 122.963 4.864 123.667 5.312C124.371 5.76 124.925 6.416 125.331 7.28C125.747 8.13333 125.955 9.17333 125.955 10.4C125.955 11.6267 125.747 12.672 125.331 13.536C124.925 14.3893 124.371 15.04 123.667 15.488C122.963 15.936 122.163 16.16 121.267 16.16ZM121.267 14.352C121.789 14.352 122.243 14.2133 122.627 13.936C123.011 13.648 123.309 13.2107 123.523 12.624C123.747 12.0373 123.859 11.296 123.859 10.4C123.859 9.49333 123.747 8.752 123.523 8.176C123.309 7.58933 123.011 7.15733 122.627 6.88C122.243 6.592 121.789 6.448 121.267 6.448C120.765 6.448 120.317 6.592 119.923 6.88C119.539 7.15733 119.235 7.58933 119.011 8.176C118.797 8.752 118.691 9.49333 118.691 10.4C118.691 11.296 118.797 12.0373 119.011 12.624C119.235 13.2107 119.539 13.648 119.923 13.936C120.317 14.2133 120.765 14.352 121.267 14.352Z" fill="black"/>
</svg>
